<mxfile host="app.diagrams.net" modified="2023-05-28T17:21:17.611Z" agent="Mozilla/5.0 (Macintosh; Intel Mac OS X 10.15; rv:94.0) Gecko/20100101 Firefox/94.0" version="21.3.5" etag="oejeAdo0rMm3x-FakgQL" type="github">
  <diagram name="Page-1" id="GJ_-xoEYX5ta997KFdBS">
    <mxGraphModel>
      <root>
        <mxCell id="0" />
        <mxCell id="1" parent="0" />
      </root>
    </mxGraphModel>
  </diagram>
</mxfile>
